<?xml version="1.0" encoding="iso-8859-1"?>
<!-- Generator: Adobe Illustrator 19.0.0, SVG Export Plug-In . SVG Version: 6.00 Build 0)  -->
<svg version="1.1" id="Capa_1" xmlns="http://www.w3.org/2000/svg" xmlns:xlink="http://www.w3.org/1999/xlink" x="0px" y="0px"
	 viewBox="0 0 512 512" style="enable-background:new 0 0 512 512;" xml:space="preserve">
<path d="M24.302,273.231c-0.66,0-1.31-0.07-1.961-0.2c-0.64-0.13-1.27-0.32-1.87-0.57c-0.6-0.25-1.18-0.56-1.73-0.92
	c-0.54-0.36-1.05-0.78-1.52-1.24c-0.46-0.46-0.87-0.97-1.24-1.52c-0.36-0.54-0.67-1.13-0.92-1.73c-0.25-0.6-0.44-1.23-0.57-1.87
	c-0.13-0.64-0.19-1.3-0.19-1.95c0-0.65,0.059-1.31,0.19-1.96c0.13-0.64,0.32-1.26,0.57-1.87c0.25-0.6,0.56-1.18,0.92-1.72
	c0.37-0.55,0.78-1.06,1.24-1.52c0.47-0.47,0.98-0.88,1.52-1.25c0.55-0.36,1.13-0.67,1.73-0.92c0.6-0.25,1.23-0.44,1.87-0.57
	c1.29-0.26,2.62-0.26,3.91,0c0.64,0.13,1.27,0.32,1.87,0.57c0.6,0.25,1.18,0.56,1.73,0.92c0.54,0.37,1.06,0.78,1.52,1.25
	c0.46,0.46,0.88,0.97,1.24,1.52c0.36,0.54,0.67,1.12,0.92,1.72s0.44,1.23,0.57,1.87c0.13,0.65,0.2,1.31,0.2,1.96
	c0,0.65-0.07,1.31-0.2,1.95c-0.13,0.64-0.32,1.27-0.57,1.87s-0.56,1.19-0.92,1.73c-0.36,0.55-0.78,1.06-1.24,1.52
	c-0.46,0.46-0.98,0.88-1.52,1.24c-0.55,0.36-1.13,0.67-1.73,0.92s-1.23,0.44-1.87,0.57
	C25.602,273.161,24.952,273.231,24.302,273.231z"/>
<path d="M346.142,131.556c-0.65,0-1.31-0.07-1.95-0.2c-0.64-0.13-1.27-0.32-1.87-0.57c-0.61-0.25-1.19-0.56-1.73-0.92
	c-0.55-0.36-1.06-0.78-1.52-1.24c-0.46-0.46-0.88-0.97-1.24-1.52c-0.36-0.54-0.67-1.12-0.92-1.73c-0.25-0.6-0.44-1.23-0.57-1.87
	s-0.2-1.3-0.2-1.95c0-0.65,0.07-1.31,0.2-1.961c0.13-0.63,0.32-1.26,0.57-1.87c0.25-0.6,0.56-1.18,0.92-1.72
	c0.36-0.55,0.78-1.06,1.24-1.52c0.46-0.46,0.97-0.88,1.52-1.24c0.54-0.36,1.12-0.67,1.73-0.92c0.6-0.25,1.23-0.45,1.87-0.57
	c1.29-0.26,2.62-0.26,3.91,0c0.64,0.12,1.27,0.32,1.87,0.57c0.6,0.25,1.18,0.56,1.72,0.92c0.55,0.36,1.06,0.78,1.52,1.24
	c0.47,0.46,0.88,0.97,1.25,1.52c0.36,0.54,0.67,1.12,0.92,1.72c0.25,0.61,0.44,1.24,0.57,1.87c0.13,0.65,0.19,1.31,0.19,1.961
	c0,0.65-0.06,1.31-0.19,1.95s-0.32,1.27-0.57,1.87c-0.25,0.61-0.56,1.19-0.92,1.73c-0.37,0.55-0.78,1.06-1.25,1.52
	c-0.46,0.46-0.97,0.88-1.52,1.24c-0.54,0.36-1.12,0.67-1.72,0.92c-0.6,0.25-1.23,0.44-1.87,0.57
	C347.453,131.486,346.803,131.556,346.142,131.556z"/>
<circle style="fill:#1890ff;" cx="255.999" cy="255.999" r="92.023"/>
<path d="M256,358.027c-56.258,0-102.027-45.769-102.027-102.027S199.743,153.974,256,153.974S358.027,199.743,358.027,256
	C358.027,312.258,312.258,358.027,256,358.027z M256,173.973c-45.23,0-82.026,36.796-82.026,82.026S210.77,338.025,256,338.025
	s82.026-36.796,82.026-82.026S301.23,173.973,256,173.973z"/>
<path style="fill:#e6f7ff;" d="M256,307.725c-28.521,0-51.725-23.204-51.725-51.726c0-28.521,23.204-51.725,51.725-51.725
	s51.726,23.204,51.726,51.725C307.725,284.521,284.521,307.725,256,307.725z"/>
<path d="M256,317.725c-34.036,0-61.726-27.69-61.726-61.726c0-34.035,27.69-61.725,61.726-61.725
	c34.036,0,61.726,27.69,61.726,61.725C317.725,290.036,290.036,317.725,256,317.725z M256,214.276
	c-23.007,0-41.725,18.718-41.725,41.724c0,23.007,18.718,41.725,41.725,41.725s41.725-18.718,41.725-41.725
	C297.725,232.993,279.007,214.276,256,214.276z"/>
<circle style="fill:#eb2f96;" cx="255.999" cy="96.944" r="33.051"/>
<circle style="fill:#722ed1;" cx="255.999" cy="415.055" r="33.051"/>
<circle style="fill:#2f54eb;" cx="468.947" cy="347.603" r="33.051"/>
<circle style="fill:#13c2c2;" cx="43.052" cy="164.406" r="33.051"/>
<path d="M214.888,109.732c5.46,17.513,21.825,30.261,41.112,30.261c23.739,0,43.052-19.313,43.052-43.052S279.739,53.89,256,53.89
	c-21.156,0-38.795,15.339-42.384,35.478c-35.408,9.029-67.46,29.463-90.782,58.003c-24.991,30.583-38.754,69.161-38.754,108.628
	c0,39.616,13.856,78.309,39.017,108.949c23.31,28.386,55.243,48.685,90.518,57.682c3.588,20.141,21.229,35.479,42.384,35.479
	s38.796-15.339,42.384-35.479c35.294-9.001,67.245-29.32,90.557-57.727C414.077,334.271,427.92,295.595,427.92,256
	c0-43.349-16.245-84.779-45.741-116.66c-3.75-4.054-10.077-4.3-14.132-0.549c-4.054,3.751-4.3,10.078-0.549,14.132
	c26.066,28.173,40.421,64.78,40.421,103.078c0,68.035-46.042,128.033-110.808,146.269c-5.46-17.513-21.825-30.262-41.112-30.262
	c-19.287,0-35.652,12.749-41.112,30.262C150.116,384.033,104.08,324.051,104.08,256C104.08,188.06,150.156,127.972,214.888,109.732z
	 M256,73.891c12.71,0,23.051,10.34,23.051,23.051c0,12.709-10.34,23.051-23.051,23.051s-23.051-10.34-23.051-23.051
	C232.949,84.232,243.29,73.891,256,73.891z M256,392.008c12.71,0,23.051,10.34,23.051,23.051c0,12.71-10.34,23.051-23.051,23.051
	s-23.051-10.34-23.051-23.051C232.949,402.348,243.29,392.008,256,392.008z"/>
<path d="M491.518,310.934c4.18-17.935,6.296-36.377,6.296-54.934c0-133.337-108.478-241.814-241.815-241.814
	c-81.368,0-156.707,40.593-201.757,108.642c-20.323-5.486-42.184,4.673-50.74,24.563c-9.38,21.807,0.73,47.18,22.537,56.559
	c5.528,2.378,11.283,3.503,16.952,3.503c16.689,0,32.605-9.761,39.608-26.04c7.466-17.358,2.583-36.974-10.717-48.987
	C113.325,70.858,181.945,34.185,256,34.185c122.308,0,221.814,99.505,221.814,221.814c0,16.44-1.809,32.775-5.382,48.685
	c-17.901-1.438-35.55,8.513-43.031,25.903c-7.467,17.359-2.583,36.977,10.72,48.99c-41.431,61.68-109.62,98.235-184.121,98.235
	c-105.781,0-197.326-75.294-217.675-179.031c-1.063-5.419-6.314-8.952-11.738-7.888c-5.419,1.063-8.951,6.318-7.888,11.738
	c22.185,113.097,121.983,195.183,237.3,195.183c41.937,0,83.284-10.955,119.571-31.681c32.952-18.822,61.231-45.33,82.185-76.96
	c3.69,0.996,7.429,1.476,11.133,1.476c16.69,0,32.605-9.762,39.607-26.04C517.039,344.751,509.417,321.937,491.518,310.934z
	 M64.226,173.51c-5.024,11.676-18.61,17.087-30.284,12.066c-11.675-5.022-17.089-18.608-12.066-30.284
	c3.749-8.716,12.27-13.941,21.207-13.941c3.034,0,6.117,0.603,9.076,1.876C63.835,148.249,69.248,161.834,64.226,173.51z
	 M490.124,356.707c-5.023,11.675-18.607,17.089-30.283,12.066h0.001c-11.676-5.022-17.09-18.608-12.067-30.284
	c5.023-11.675,18.609-17.09,30.283-12.066S495.146,345.031,490.124,356.707z"/>
<g>
</g>
<g>
</g>
<g>
</g>
<g>
</g>
<g>
</g>
<g>
</g>
<g>
</g>
<g>
</g>
<g>
</g>
<g>
</g>
<g>
</g>
<g>
</g>
<g>
</g>
<g>
</g>
<g>
</g>
</svg>
